<?xml version="1.0" encoding="UTF-8" standalone="no"?>
<!DOCTYPE svg PUBLIC "-//W3C//DTD SVG 1.1//EN" "http://www.w3.org/Graphics/SVG/1.1/DTD/svg11.dtd">
<svg width="100%" height="100%" viewBox="0 0 1408 768" version="1.1" xmlns="http://www.w3.org/2000/svg" xmlns:xlink="http://www.w3.org/1999/xlink" xml:space="preserve" xmlns:serif="http://www.serif.com/" style="fill-rule:evenodd;clip-rule:evenodd;stroke-linejoin:round;stroke-miterlimit:2;">
    <g transform="matrix(-1,0,0,1,1410.47,0)">
        <path d="M652.272,102.087C676.827,80.407 730.206,50.291 762.458,48.251C769.249,47.822 776.218,48.979 781.449,53.655C796.575,67.178 801.029,107.396 802.106,126.403C802.995,142.106 804.618,178.847 794.174,190.524C799.886,191.495 805.378,193.483 810.389,196.394C814.976,199.079 820.297,203.173 821.644,208.623C822.191,210.838 821.932,213.091 820.614,215.001C817.458,219.576 810.458,220.759 805.368,221.821C809.297,222.941 813.472,227.026 816.204,230.047C819.038,233.18 821.985,237.849 821.566,242.267C821.382,244.338 820.346,246.238 818.706,247.515C814.099,251.164 808.227,249.981 802.865,249.416C806.038,252.435 809.903,257.871 810.037,262.44C810.11,264.933 808.963,267.35 807.161,269.033C801.943,273.904 793.663,272.781 787.176,272.422C787.449,272.629 787.723,272.837 787.98,273.063C794.022,278.354 796.984,294.22 797.655,301.949C798.028,306.25 797.769,311.056 794.724,314.437C791.9,317.571 787.922,317.458 784.029,317.664C786.436,321.48 787.624,325.971 787.075,330.479C785.488,343.523 762.409,365.725 752.587,373.954C745.275,380.08 737.275,385.369 729.77,391.264C744.654,386.389 781.972,367.508 789.027,354.437C795.754,341.972 798.053,330.353 807.934,319.249C816.904,309.17 833.324,300.093 846.925,305.912C850.811,307.574 853.201,310.918 856.636,312.655C858.424,313.559 862.667,312.872 864.667,312.755C871.604,312.348 877.355,312.519 882.768,317.453C890.23,324.256 891.37,332.827 891.707,342.364C896.542,346.847 899.347,351.442 900.087,358.123C902.395,378.977 884.151,408.058 871.765,423.541C838.634,464.957 778.33,500.453 725.801,506.34C727.587,515.586 728.846,524.926 729.57,534.314C787.502,531.045 823.595,495.993 870.957,469.518C897.875,454.471 927.552,444.261 958.463,442.418C989.116,440.591 1020.47,445.863 1043.96,466.888C1064.56,485.33 1076.34,510.951 1077.75,538.451C1078.07,544.559 1079.27,557.98 1074.93,562.769C1075.08,563.374 1075.18,563.879 1075.22,564.501C1076.2,580.424 1060.28,605.122 1050.27,616.698C1015.41,657.036 960.365,675.163 908.536,678.783C838.743,683.658 771.721,663.688 718.603,617.444C715.955,620.495 713.038,623.376 710.252,626.306C710.2,652.003 709.811,677.144 708.012,702.793C712.127,708.227 715.708,714.784 715.852,721.767C715.956,726.793 713.998,731.234 710.477,734.778C699.595,745.734 680.729,744.73 666.477,744.841C647.238,744.99 618.058,747.93 603.373,733.144C591.513,721.202 595.11,682.143 595.312,665.402C584.568,665.51 573.823,665.544 563.079,665.506C563.148,678.24 563.339,691 562.938,703.729C562.615,713.979 562.737,725.703 554.584,733.188C538.55,747.908 505.825,745.517 485.34,744.632C473.264,744.11 456.635,743.464 447.974,733.784C444.352,729.736 443.094,725.047 443.44,719.693C443.972,711.442 447.963,706.983 453.849,701.781C447.739,677.404 448.632,651.384 449.677,626.462C446.259,622.837 443.344,618.943 440.397,614.933C439.385,615.842 438.348,616.724 437.288,617.577C422.002,629.884 404.991,636.452 385.208,634.206C372.499,632.763 360.11,627.798 352.041,617.45C340.798,603.033 341.304,582.685 343.457,565.489C351.029,505.027 395.014,436.898 442.938,399.751C436.272,396.745 429.825,393.278 423.642,389.375C403.392,376.663 387.189,360.464 372.55,341.728C370.057,338.537 365.669,334.086 364.961,330.057C364.089,325.102 368.092,320.202 370.618,316.274C367.605,316.43 363.008,317.11 360.24,315.86C358.787,315.203 357.902,313.929 357.479,312.397C354.652,302.157 365.135,281.663 369.705,272.671C364.128,272.925 357.394,273.539 352.077,271.618C349.558,270.709 347.59,269.214 346.493,266.699C344.407,261.919 346.945,256.762 348.688,252.305C344.848,251.7 340.194,251.196 337.21,248.461C335.445,246.842 334.396,244.809 334.41,242.368C334.452,234.807 342.368,227.314 347.332,222.284C340.99,218.84 336.566,214.205 332.324,208.514C340.547,199.236 349.575,193.796 361.499,190.478C360.884,188.814 360.294,187.14 359.729,185.459C348.557,152.096 349.089,96.444 365,64.709C369.194,56.346 374.193,51.245 383.116,48.309C423.759,47.122 474.433,77.596 503.527,104.414C553.287,87.262 601.903,87.048 652.272,102.087Z" style="fill-rule:nonzero;"/>
    </g>
    <g transform="matrix(-1,0,0,1,1410.47,0)">
        <path d="M394.948,235.211C395.95,228.727 397.965,222.223 400.138,216.045C415.559,172.195 451.552,137.874 492.969,118.183C541.645,95.041 600.434,93.1 651.021,111.206C688.209,124.516 726.395,151.559 743.647,188.095C756.918,207.414 765.168,236.402 765.412,259.769C778.09,270.639 787.654,284.066 789.011,301.193C789.199,303.562 789.166,305.718 788.659,308.043L787.882,308.748C780.386,304.948 772.808,301.965 764.844,299.312C771.878,307.845 779.364,319.615 777.958,331.265C777.938,331.432 777.911,331.598 777.887,331.765C777.198,334.697 774.027,337.146 771.573,338.693C771.055,339.02 771.027,339.023 770.559,339.256C770.514,345.565 758.723,356.288 754.144,360.794C739.966,374.746 721.012,388.898 702.55,396.531C698.598,398.603 694.566,400.52 690.464,402.279C631.379,427.56 556.643,426.13 495.263,409.886C481.466,406.235 468.262,401.33 455.033,396.015C433.329,388.561 403.89,369.501 390.677,350.441C384.125,343.448 378.44,335.961 372.913,328.152L377.195,319.317C381.065,312.958 385.166,306.908 389.457,300.831C381.954,301.561 373.335,306.519 366.076,309.009C366.507,305.49 367.283,302.05 368.033,298.589C372.107,283.384 379.006,270.648 389.521,258.972C391.003,250.981 392.365,242.934 394.948,235.211Z" style="fill:rgb(232,93,40);fill-rule:nonzero;"/>
    </g>
    <g transform="matrix(-1,0,0,1,1410.47,0)">
        <path d="M390.068,334.027C392.925,318.403 400.524,304.889 413.801,295.784C426.507,287.069 440.807,284.852 455.825,287.751C460.241,288.604 466.171,290.12 468.715,294.228C469.918,296.172 470.051,298.378 469.433,300.539C467.743,306.448 462.759,312.348 459.882,317.834C450.581,335.569 447.825,357.038 449.724,376.79C451.482,383.048 454.047,389.624 455.033,396.015C433.329,388.561 403.89,369.501 390.677,350.441C390.17,345.262 389.913,340.091 389.687,334.893L390.068,334.027Z" style="fill:rgb(254,254,254);fill-rule:nonzero;"/>
    </g>
    <g transform="matrix(-1,0,0,1,1410.47,0)">
        <path d="M389.687,334.893L390.068,334.027C390.453,339.117 396.182,343.828 399.864,346.979C415.253,360.149 431.275,368.763 449.724,376.79C451.482,383.048 454.047,389.624 455.033,396.015C433.329,388.561 403.89,369.501 390.677,350.441C390.17,345.262 389.913,340.091 389.687,334.893Z" style="fill:rgb(192,199,215);fill-rule:nonzero;"/>
    </g>
    <g transform="matrix(-1,0,0,1,1410.47,0)">
        <path d="M685.404,301.238C688.651,298.25 692.19,295.595 695.966,293.312C704.382,288.28 714.215,285.588 723.914,288.125C743.133,293.154 756.143,312.951 765.452,329.019C767.035,331.994 769.904,336.019 770.559,339.256C770.514,345.565 758.723,356.288 754.144,360.794C739.966,374.746 721.012,388.898 702.55,396.531C704.538,390.791 707.366,385.172 709.82,379.606C710.203,377.287 710.505,374.957 710.725,372.617C713.628,344.516 702.779,322.562 685.404,301.238Z" style="fill:rgb(254,254,254);fill-rule:nonzero;"/>
    </g>
    <g transform="matrix(-1,0,0,1,1410.47,0)">
        <path d="M765.452,329.019C767.035,331.994 769.904,336.019 770.559,339.256C770.514,345.565 758.723,356.288 754.144,360.794C739.966,374.746 721.012,388.898 702.55,396.531C704.538,390.791 707.366,385.172 709.82,379.606C730.123,364.451 750.991,350.304 765.452,329.019Z" style="fill:rgb(192,199,215);fill-rule:nonzero;"/>
    </g>
    <g transform="matrix(-1,0,0,1,1410.47,0)">
        <path d="M394.948,235.211C395.95,228.727 397.965,222.223 400.138,216.045C415.559,172.195 451.552,137.874 492.969,118.183C541.645,95.041 600.434,93.1 651.021,111.206C688.209,124.516 726.395,151.559 743.647,188.095C743.544,188.074 743.44,188.059 743.338,188.033C741.695,187.612 715.661,159.064 711.52,155.468C649.704,101.788 557.085,92.929 485.44,131.949C454.862,148.603 432.359,172.628 413.887,201.859C409.833,208.273 398.505,232.976 394.948,235.211Z" style="fill:rgb(248,158,90);fill-rule:nonzero;"/>
    </g>
    <g transform="matrix(-1,0,0,1,1410.47,0)">
        <path d="M372.913,328.152L377.195,319.317C380.934,325.215 384.341,330.287 389.687,334.893C389.913,340.091 390.17,345.262 390.677,350.441C384.125,343.448 378.44,335.961 372.913,328.152Z" style="fill:rgb(211,58,36);fill-rule:nonzero;"/>
    </g>
    <g transform="matrix(-1,0,0,1,1410.47,0)">
        <path d="M368.033,298.589C369.453,299.958 370.28,300.022 372.258,299.963C377.24,299.816 384.187,297.872 388.89,299.656C389.019,299.899 389.461,300.569 389.457,300.831C381.954,301.561 373.335,306.519 366.076,309.009C366.507,305.49 367.283,302.05 368.033,298.589Z" style="fill:rgb(211,58,36);fill-rule:nonzero;"/>
    </g>
    <g transform="matrix(-1,0,0,1,1410.47,0)">
        <path d="M501.641,302.342C501.874,301.348 502.15,300.352 502.577,299.421C508.873,285.728 535.105,268.126 549.143,262.523C570.111,254.154 592.495,254.784 613.159,263.787C624.971,268.932 643.708,280.265 648.613,292.75C659.886,306.545 667.354,322.918 665.467,341.035C663.612,358.862 653.575,374.937 639.76,386.039C618.963,402.752 591.547,407.939 565.483,405.056C542.119,402.472 521.079,392.379 506.296,373.79C496.076,360.937 489.508,344.104 491.444,327.504C492.521,318.272 496.318,309.877 501.641,302.342Z" style="fill:rgb(254,254,254);fill-rule:nonzero;"/>
    </g>
    <g transform="matrix(-1,0,0,1,1410.47,0)">
        <path d="M501.641,302.342C501.874,301.348 502.15,300.352 502.577,299.421C508.873,285.728 535.105,268.126 549.143,262.523C570.111,254.154 592.495,254.784 613.159,263.787C624.971,268.932 643.708,280.265 648.613,292.75C628.526,274.072 606.102,258.719 577.484,259.792C550.188,260.814 525.22,276.497 507.14,296.147C505.273,298.181 503.44,300.247 501.641,302.342Z" style="fill-rule:nonzero;"/>
    </g>
    <g transform="matrix(-1,0,0,1,1410.47,0)">
        <path d="M575.141,277.341C582.815,276.674 593.135,278.34 599.585,282.511C602.886,284.645 605.597,287.833 606.336,291.782C607.036,295.53 605.873,299.184 603.729,302.252C597.992,310.462 586.374,314.425 576.899,316.211C577.441,319.477 578.336,322.7 579.128,325.914C581.22,327.807 583.628,329.595 586.08,330.986C595.032,336.065 606.773,338.546 616.825,335.621C630.301,331.701 629.256,324.218 634.947,314.077C636.693,313.261 636.765,313.043 638.573,313.608C639.033,314.16 639.489,314.755 639.761,315.426C640.671,317.67 640.624,321.061 639.586,323.243C635.136,332.595 624.825,337.595 615.67,341.07C614.16,347.42 612.392,353.748 609.122,359.445C603.919,368.512 596.35,373.845 586.406,376.588C586.041,376.663 585.676,376.74 585.308,376.801C575.798,378.395 566.536,376.754 558.685,370.947C549.633,364.251 545.642,354.593 543.928,343.812C535.19,341.487 525.977,337.832 520.757,329.983C518.445,326.506 516.387,321.562 517.43,317.298C517.836,315.641 517.96,315.589 519.329,314.749C523.198,316.244 524.26,320.415 525.931,323.936C528.465,329.271 531.813,334.543 537.719,336.536C545.621,339.202 556.471,338.379 563.844,334.487C571.507,330.44 574.094,324.357 576.514,316.551C570.259,314.612 564.257,311.878 559.018,307.913C554.744,304.678 550.497,300.216 549.781,294.667C549.353,291.351 550.283,288.166 552.41,285.587C557.671,279.207 567.432,278.133 575.141,277.341Z" style="fill-rule:nonzero;"/>
    </g>
    <g transform="matrix(-1,0,0,1,1410.47,0)">
        <path d="M577.268,331.139C587.859,337.432 597.985,340.559 610.201,341.916C609.113,346.636 607.803,351.133 605.583,355.456C600.619,363.14 594.718,369.386 585.422,371.478C577.855,373.201 569.913,371.726 563.467,367.403C559.669,364.908 556.967,361.807 554.221,358.263C551.433,354.145 550.393,348.71 549.135,343.967C559.751,340.982 568.105,337.282 577.268,331.139Z" style="fill:rgb(238,84,102);fill-rule:nonzero;"/>
    </g>
    <g transform="matrix(-1,0,0,1,1410.47,0)">
        <path d="M577.268,331.139C587.859,337.432 597.985,340.559 610.201,341.916C609.113,346.636 607.803,351.133 605.583,355.456C595.795,348.885 583.848,346.786 572.304,349.009C565.907,350.241 558.604,353.239 554.221,358.263C551.433,354.145 550.393,348.71 549.135,343.967C559.751,340.982 568.105,337.282 577.268,331.139Z" style="fill:rgb(119,40,49);fill-rule:nonzero;"/>
    </g>
    <g transform="matrix(-1,0,0,1,1410.47,0)">
        <path d="M559.692,287.139C561.152,286.115 562.61,285.233 564.269,284.562C574.101,280.589 584.731,282.179 594.225,286.234C596.946,287.768 600.001,289.417 600.863,292.695C601.418,294.805 600.804,297.108 599.606,298.882C596.089,304.089 588.071,307.236 582.118,308.221C574.141,309.542 566.232,305.851 559.955,301.195C557.494,299.37 555.296,297.196 553.318,294.862C554.96,292.413 556.562,290.314 558.681,288.261C559.045,287.908 559.369,287.528 559.692,287.139Z" style="fill:rgb(9,4,17);fill-rule:nonzero;"/>
    </g>
    <g transform="matrix(-1,0,0,1,1410.47,0)">
        <path d="M559.692,287.139C561.152,286.115 562.61,285.233 564.269,284.562C574.101,280.589 584.731,282.179 594.225,286.234C583.16,286.908 575.633,285.206 564.207,287.896C562.183,288.373 561.378,288.489 559.692,287.139Z" style="fill:rgb(113,134,161);fill-rule:nonzero;"/>
    </g>
    <g transform="matrix(-1,0,0,1,1410.47,0)">
        <path d="M526.859,371.128C531.113,373.52 534.253,378.117 538.429,380.867C555.361,392.015 575.237,395.165 595.112,393.792C601.87,393.325 609.03,390.014 615.558,390.093L615.007,390.491C598.702,396.299 581.777,398.425 564.683,395.119C548.956,392.076 535.892,384.547 526.859,371.128Z" style="fill:rgb(192,199,215);fill-rule:nonzero;"/>
    </g>
    <g transform="matrix(-1,0,0,1,1410.47,0)">
        <path d="M651.434,175.527C658.797,174.997 667.847,174.965 674.622,178.2C677.095,179.381 679.15,181.151 679.988,183.856C681.015,187.172 679.85,191.005 678.339,193.99C672.173,206.17 657.194,212.002 645.017,216.055C643.951,216.33 642.875,216.563 641.791,216.753C635.222,217.889 626.802,217.953 621.138,213.886C618.306,211.853 616.564,208.896 616.052,205.46C615.291,200.349 617.12,195.31 620.131,191.225C627.54,181.174 639.682,177.386 651.434,175.527Z" style="fill:rgb(254,254,254);fill-rule:nonzero;"/>
    </g>
    <g transform="matrix(-1,0,0,1,1410.47,0)">
        <path d="M492.931,176.293C502.855,174.978 514.568,177.749 523.524,181.966C530.972,185.473 538.467,191.175 541.239,199.244C542.172,201.959 542.248,204.775 540.872,207.367C538.097,212.597 531.758,215.176 526.406,216.696C512.711,216.89 500.273,213.646 489.15,205.409C483.817,201.46 476.442,194.628 475.537,187.745C475.256,185.605 475.805,183.627 477.184,181.961C480.862,177.518 487.588,176.795 492.931,176.293Z" style="fill:rgb(254,254,254);fill-rule:nonzero;"/>
    </g>
    <g transform="matrix(-1,0,0,1,1410.47,0)">
        <path d="M487.915,231.266C489.541,231.229 491.133,231.366 492.747,231.542C503.737,232.744 513.636,237.23 520.604,246.07C523.636,249.916 527.387,256.486 526.51,261.604C526.092,264.047 524.706,266.272 522.547,267.537C513.19,273.021 507.179,259.031 501.243,254.741C497.986,252.388 494.034,251.625 490.196,250.749C472.59,251.311 470.192,265.931 458.35,268.704C456.758,269.077 454.963,269.134 453.564,268.148C451.452,266.658 450.246,263.493 449.892,261.008C449.177,255.995 452.192,251.144 455.119,247.345C463.202,236.855 475.318,232.813 487.915,231.266Z" style="fill:rgb(9,4,17);fill-rule:nonzero;"/>
    </g>
    <g transform="matrix(-1,0,0,1,1410.47,0)">
        <path d="M661.631,231.137C666.294,230.801 670.979,231.304 675.464,232.622C684.679,235.293 694.041,241.484 698.71,250.044C700.944,254.139 702.909,259.966 701.308,264.605C700.736,266.305 699.437,267.662 697.764,268.309C687.775,272.23 682.765,259.211 676.605,254.242C674.666,252.677 672.31,251.813 670.001,250.95C648.863,248.115 649.757,266.475 638.82,268.97C637.127,269.356 635.79,268.977 634.343,268.089C631.698,266.466 628.983,264.194 628.382,260.977C627.733,257.5 629.887,253.202 631.696,250.369C638.659,239.464 649.26,233.765 661.631,231.137Z" style="fill:rgb(9,4,17);fill-rule:nonzero;"/>
    </g>
    <g transform="matrix(-1,0,0,1,1410.47,0)">
        <path d="M729.977,545.238L730.816,544.672L730.238,544.53C730.397,544.347 730.538,544.145 730.716,543.979C732.061,542.722 752.071,539.609 755.477,538.831C767.08,536.207 778.415,532.518 789.34,527.811C803.642,521.569 817.158,513.293 830.364,505.04C873.629,478.002 911.037,452.304 964.475,450.537C992.909,449.596 1019.48,455.821 1040.52,475.615C1045.29,480.1 1056.64,490.903 1056.87,497.859L1057.36,499.243C1063.27,503.316 1066.05,516.086 1067.32,522.949C1072.49,550.784 1066.4,579.534 1050.39,602.886C1044.44,611.512 1027.83,630.573 1018.09,633.323C1011.65,643.532 968.215,659.743 955.558,662.499C954.16,662.803 952.8,662.903 951.375,662.911L950.888,662.917C950.593,662.919 950.298,662.908 950.003,662.896C943.102,668.461 914.859,670.373 905.278,670.488C905.072,670.611 904.878,670.759 904.658,670.858C895.631,674.916 837.405,666.604 826.163,663.487C818.038,660.541 809.4,659.134 801.191,656.412C772.003,646.732 744.805,630.972 723.286,608.923C728.522,594 730.995,578.248 730.584,562.438C730.466,557.301 728.746,550.104 729.977,545.238Z" style="fill:rgb(232,93,40);fill-rule:nonzero;"/>
    </g>
    <g transform="matrix(-1,0,0,1,1410.47,0)">
        <path d="M729.977,545.238L730.816,544.672L730.238,544.53C730.397,544.347 730.538,544.145 730.716,543.979C732.061,542.722 752.071,539.609 755.477,538.831C767.08,536.207 778.415,532.518 789.34,527.811C803.642,521.569 817.158,513.293 830.364,505.04C873.629,478.002 911.037,452.304 964.475,450.537C992.909,449.596 1019.48,455.821 1040.52,475.615C1045.29,480.1 1056.64,490.903 1056.87,497.859L1057.36,499.243C1063.27,503.316 1066.05,516.086 1067.32,522.949C1072.49,550.784 1066.4,579.534 1050.39,602.886C1044.44,611.512 1027.83,630.573 1018.09,633.323C1011.65,643.532 968.215,659.743 955.558,662.499C954.16,662.803 952.8,662.903 951.375,662.911L950.888,662.917C950.593,662.919 950.298,662.908 950.003,662.896C950.722,662.409 951.406,661.87 951.901,661.144C959.772,649.603 962.749,603.459 959.865,589.295L959.329,588.574C960.264,587.245 960.136,586.304 960.031,584.723C957.196,542.196 943.016,494.568 910.038,465.59C900.182,471.704 888.358,475.104 878.019,480.565C869.631,484.995 862.227,491.42 853.887,495.677C843.776,505.225 828.899,512.252 816.828,519.111C799.788,528.318 779.566,539.856 760.307,542.61C751.77,544.913 740.017,548.408 731.151,547.082C730.293,546.363 730.25,546.322 729.977,545.238Z" style="fill:rgb(119,40,49);fill-rule:nonzero;"/>
    </g>
    <g transform="matrix(-1,0,0,1,1410.47,0)">
        <path d="M1057.36,499.243C1063.27,503.316 1066.05,516.086 1067.32,522.949C1072.49,550.784 1066.4,579.534 1050.39,602.886C1044.44,611.512 1027.83,630.573 1018.09,633.323C1011.65,643.532 968.215,659.743 955.558,662.499C954.16,662.803 952.8,662.903 951.375,662.911L950.888,662.917C950.593,662.919 950.298,662.908 950.003,662.896C950.722,662.409 951.406,661.87 951.901,661.144C959.772,649.603 962.749,603.459 959.865,589.295C961.786,587.389 975.956,582.044 980.205,579.426C993.993,570.932 1006.26,560.022 1019.97,551.448L1020.18,549.338C1022.07,549.117 1023.23,548.491 1024.65,547.239C1033.11,539.802 1056.74,509.738 1057.36,499.243Z" style="fill:rgb(100,29,44);fill-rule:nonzero;"/>
    </g>
    <g transform="matrix(-1,0,0,1,1410.47,0)">
        <path d="M1057.36,499.243C1063.27,503.316 1066.05,516.086 1067.32,522.949C1072.49,550.784 1066.4,579.534 1050.39,602.886C1044.44,611.512 1027.83,630.573 1018.09,633.323C1017.97,628.124 1020.64,619.309 1021.36,613.659C1023.39,597.93 1024.19,581.654 1023.28,565.822C1023.06,562.075 1022.77,553.961 1019.97,551.448L1020.18,549.338C1022.07,549.117 1023.23,548.491 1024.65,547.239C1033.11,539.802 1056.74,509.738 1057.36,499.243Z" style="fill:rgb(211,58,36);fill-rule:nonzero;"/>
    </g>
    <g transform="matrix(-1,0,0,1,1410.47,0)">
        <path d="M729.977,545.238L730.816,544.672L730.238,544.53C730.397,544.347 730.538,544.145 730.716,543.979C732.061,542.722 752.071,539.609 755.477,538.831C767.08,536.207 778.415,532.518 789.34,527.811C803.642,521.569 817.158,513.293 830.364,505.04C873.629,478.002 911.037,452.304 964.475,450.537C992.909,449.596 1019.48,455.821 1040.52,475.615C1045.29,480.1 1056.64,490.903 1056.87,497.859L1057.36,499.243C1056.74,509.738 1033.11,539.802 1024.65,547.239C1023.23,548.491 1022.07,549.117 1020.18,549.338C1020.95,546.527 1020.15,543.147 1019.6,540.319C1015.72,520.517 994.696,467.733 978.173,456.604C961.552,452.074 927.086,461.041 910.038,465.59C900.182,471.704 888.358,475.104 878.019,480.565C869.631,484.995 862.227,491.42 853.887,495.677C843.776,505.225 828.899,512.252 816.828,519.111C799.788,528.318 779.566,539.856 760.307,542.61C751.77,544.913 740.017,548.408 731.151,547.082C730.293,546.363 730.25,546.322 729.977,545.238Z" style="fill:rgb(232,93,40);fill-rule:nonzero;"/>
    </g>
    <g transform="matrix(-1,0,0,1,1410.47,0)">
        <path d="M729.977,545.238L730.816,544.672L730.238,544.53C730.397,544.347 730.538,544.145 730.716,543.979C732.061,542.722 752.071,539.609 755.477,538.831C767.08,536.207 778.415,532.518 789.34,527.811C803.642,521.569 817.158,513.293 830.364,505.04C873.629,478.002 911.037,452.304 964.475,450.537C992.909,449.596 1019.48,455.821 1040.52,475.615C1045.29,480.1 1056.64,490.903 1056.87,497.859L1056.37,498.864C1052.98,498.419 1042.04,483.899 1038.44,480.565C1022.63,465.914 1000.04,455.795 978.173,456.604C961.552,452.074 927.086,461.041 910.038,465.59C900.182,471.704 888.358,475.104 878.019,480.565C869.631,484.995 862.227,491.42 853.887,495.677C843.776,505.225 828.899,512.252 816.828,519.111C799.788,528.318 779.566,539.856 760.307,542.61C751.77,544.913 740.017,548.408 731.151,547.082C730.293,546.363 730.25,546.322 729.977,545.238Z" style="fill:rgb(248,158,90);fill-rule:nonzero;"/>
    </g>
    <g transform="matrix(-1,0,0,1,1410.47,0)">
        <path d="M760.307,542.61C779.566,539.856 799.788,528.318 816.828,519.111C828.025,526.723 834.137,556.855 836.509,569.314C838.564,580.108 843.747,609.366 839.142,618.061C841.393,625.229 834.285,650.856 830.602,658.068C829.501,660.223 828.293,662.225 826.163,663.487C818.038,660.541 809.4,659.134 801.191,656.412C772.003,646.732 744.805,630.972 723.286,608.923C728.522,594 730.995,578.248 730.584,562.438C730.466,557.301 728.746,550.104 729.977,545.238C730.25,546.322 730.293,546.363 731.151,547.082C740.017,548.408 751.77,544.913 760.307,542.61Z" style="fill:rgb(211,58,36);fill-rule:nonzero;"/>
    </g>
    <g transform="matrix(-1,0,0,1,1410.47,0)">
        <path d="M760.307,542.61C779.566,539.856 799.788,528.318 816.828,519.111C828.025,526.723 834.137,556.855 836.509,569.314C838.564,580.108 843.747,609.366 839.142,618.061C815.725,619.006 793.241,615.216 770.863,608.511C776.382,596.109 764.055,556.268 760.307,542.61Z" style="fill:rgb(232,93,40);fill-rule:nonzero;"/>
    </g>
    <g transform="matrix(-1,0,0,1,1410.47,0)">
        <path d="M959.329,588.574L959.865,589.295C962.749,603.459 959.772,649.603 951.901,661.144C951.406,661.87 950.722,662.409 950.003,662.896C943.102,668.461 914.859,670.373 905.278,670.488C905.072,670.611 904.878,670.759 904.658,670.858C895.631,674.916 837.405,666.604 826.163,663.487C828.293,662.225 829.501,660.223 830.602,658.068C834.285,650.856 841.393,625.229 839.142,618.061C856.521,615.744 873.705,613.939 891.004,610.909L890.551,611.331C891.714,611.103 892.874,610.911 894.046,610.737L893.604,613.264C893.925,612.979 894.31,612.676 894.534,612.299C895.48,610.71 895.017,609.449 894.736,607.761C895.563,608.462 896.357,609.102 897.49,609.169C906.518,609.709 952.409,594.427 959.329,588.574Z" style="fill:rgb(211,58,36);fill-rule:nonzero;"/>
    </g>
    <g transform="matrix(-1,0,0,1,1410.47,0)">
        <path d="M839.142,618.061C856.521,615.744 873.705,613.939 891.004,610.909L890.551,611.331C891.714,611.103 892.874,610.911 894.046,610.737L893.604,613.264C897.753,621.077 891.546,643.472 889.048,651.646C887.011,658.309 884.083,666.735 877.803,670.416L905.278,670.488C905.072,670.611 904.878,670.759 904.658,670.858C895.631,674.916 837.405,666.604 826.163,663.487C828.293,662.225 829.501,660.223 830.602,658.068C834.285,650.856 841.393,625.229 839.142,618.061Z" style="fill:rgb(100,29,44);fill-rule:nonzero;"/>
    </g>
    <g transform="matrix(-1,0,0,1,1410.47,0)">
        <path d="M853.887,495.677C863.075,498.267 869.554,509.226 873.975,517.129C886.316,539.188 892.613,564.442 895.335,589.435C895.862,594.273 896.945,601.367 895.504,606.068C895.313,606.692 895.052,607.192 894.736,607.761C895.017,609.449 895.48,610.71 894.534,612.299C894.31,612.676 893.925,612.979 893.604,613.264L894.046,610.737C892.874,610.911 891.714,611.103 890.551,611.331L891.004,610.909C873.705,613.939 856.521,615.744 839.142,618.061C843.747,609.366 838.564,580.108 836.509,569.314C834.137,556.855 828.025,526.723 816.828,519.111C828.899,512.252 843.776,505.225 853.887,495.677Z" style="fill:rgb(119,40,49);fill-rule:nonzero;"/>
    </g>
    <g transform="matrix(-1,0,0,1,1410.47,0)">
        <path d="M472.423,411.581C486.698,414.376 512.908,438.794 523.747,449.413C528.382,453.439 532.956,457.634 537.914,461.26L548.129,451.229C552.954,456.796 558.038,461.78 563.873,466.288C548.781,500.894 537.271,536.636 531.275,573.966C544.539,590.437 559.072,603.393 577.74,613.485C596.353,603.861 612.429,591.178 625.887,575.039C619.742,539.037 610.242,500.552 595.376,467.11C600.433,463.009 605.246,458.647 609.596,453.79C612.02,456.147 614.494,458.469 616.837,460.906L631.636,449.847C637.599,444.399 644.528,439.868 650.722,434.66C656.947,429.425 662.327,422.811 669.427,418.738C674.047,416.087 678.824,415.149 683.967,414.061C688.11,419.569 690.636,426.025 693.275,432.335C696.19,439.055 698.923,445.812 701.455,452.607C717.602,495.939 725.567,540.827 720.245,587.772C715.645,607.809 706.058,622.61 688.461,633.678C643.646,661.863 554.758,661.375 504.036,649.602C479.648,643.942 459.306,633.245 445.82,611.548C442.884,606.826 439.969,601.498 438.737,596.041C429.822,539.332 444.354,482.08 464.769,429.466C466.437,424.831 469.746,420.643 469.886,415.544L472.423,411.581Z" style="fill:rgb(232,93,40);fill-rule:nonzero;"/>
    </g>
    <g transform="matrix(-1,0,0,1,1410.47,0)">
        <path d="M438.737,596.041C464.281,612.343 498.114,619.751 527.989,623.725C591.351,632.154 667.902,627.827 720.245,587.772C715.645,607.809 706.058,622.61 688.461,633.678C643.646,661.863 554.758,661.375 504.036,649.602C479.648,643.942 459.306,633.245 445.82,611.548C442.884,606.826 439.969,601.498 438.737,596.041Z" style="fill:rgb(100,29,44);fill-rule:nonzero;"/>
    </g>
    <g transform="matrix(-1,0,0,1,1410.47,0)">
        <path d="M772.053,378.836C782.045,375.158 793.416,367.956 797.94,357.985C800.154,353.103 801.447,347.798 803.588,342.875C808.598,331.356 818.789,319.404 830.69,314.848C834.706,313.31 839.974,311.971 844.08,313.909C848.823,316.147 849.482,329.36 854.054,328.934L854.453,328.665C855.767,328.041 856.95,326.955 858.098,326.065C862.794,323.442 866.508,321.639 871.997,323.122C875.36,324.041 878.217,326.266 879.932,329.301C882.595,333.956 882.108,339.835 880.748,344.842C880.452,345.918 880.005,346.946 879.421,347.896C883.236,349.672 888.118,351.419 889.757,355.665C893.194,364.572 887.887,377.049 884.068,385.199C872.937,408.71 856.656,429.413 836.432,445.772C832.18,449.281 826.726,453.952 821.472,455.792C821.182,455.894 820.885,455.979 820.588,456.062C819.799,450.259 811.74,445.585 808.897,440.353C803.825,431.022 796.883,423.096 791.5,414.025C786.348,405.346 778.985,384.597 772.398,379.097C772.288,379.004 772.168,378.923 772.053,378.836Z" style="fill:rgb(100,29,44);fill-rule:nonzero;"/>
    </g>
    <g transform="matrix(-1,0,0,1,1410.47,0)">
        <path d="M858.098,326.065C860.928,327.236 862.064,325.603 864.865,325.805C868.906,326.096 873.508,330.806 874.984,334.335C876.084,336.966 876.239,339.876 875.118,342.532C874.123,344.888 871.326,348.229 868.863,349.087C866.142,350.035 861.6,348.407 859.231,347.039C857.167,345.847 855.695,344.194 855.115,341.83C854.171,337.976 856.18,331.491 854.453,328.665C855.767,328.041 856.95,326.955 858.098,326.065Z" style="fill:rgb(39,15,36);fill-rule:nonzero;"/>
    </g>
    <g transform="matrix(-1,0,0,1,1410.47,0)">
        <path d="M860.563,330.367C862.121,330.096 864.083,329.738 865.638,330.134C867.972,330.728 870.109,332.643 871.234,334.734C872.168,336.434 872.339,338.449 871.707,340.282C870.863,342.749 869.342,343.809 867.104,344.815L866.494,345.196C865.033,345.202 863.572,345.051 862.325,344.212C859.777,342.501 858.455,339.272 858.094,336.319C857.788,333.814 859.144,332.234 860.563,330.367Z" style="fill:rgb(113,134,161);fill-rule:nonzero;"/>
    </g>
    <g transform="matrix(-1,0,0,1,1410.47,0)">
        <path d="M827.154,346.182C832.673,345.472 837.193,346.06 842.151,348.716C850.2,353.028 856.549,361.098 859.141,369.822C860.604,374.748 861.117,380.517 858.488,385.153C856.298,389.014 852.673,391.341 848.477,392.467C846.883,393.227 845.174,393.304 843.438,393.147C836.069,392.482 830.263,388.405 825.605,382.825C820.371,376.556 816.426,368.053 817.219,359.718C817.865,352.92 822.244,350.168 827.154,346.182Z" style="fill:rgb(39,15,36);fill-rule:nonzero;"/>
    </g>
    <g transform="matrix(-1,0,0,1,1410.47,0)">
        <path d="M827.58,350.306C832.439,349.661 835.637,349.959 839.993,352.38C847.539,356.572 853.807,364.36 856.073,372.716C857.043,376.29 857.208,380.176 855.226,383.446C853.306,386.614 850.595,387.811 847.135,388.677C846.281,389.337 844.81,389.347 843.751,389.353C838.552,389.379 833.721,385.576 830.265,382.067C825.096,376.819 820.086,368.959 820.274,361.308C820.396,356.343 824.305,353.486 827.58,350.306Z" style="fill:rgb(113,134,161);fill-rule:nonzero;"/>
    </g>
    <g transform="matrix(-1,0,0,1,1410.47,0)">
        <path d="M866.752,353.057C869.228,352.616 872.835,352.181 875.271,352.895C877.983,353.69 880.519,355.791 881.928,358.237C883.41,360.811 883.867,363.801 883.088,366.676C882.045,370.533 879.453,373.401 876.067,375.373C874.87,376.254 873.146,376.328 871.701,376.215C869.017,376.004 866.742,374.616 865.06,372.551C862.545,369.463 861.255,365.246 861.692,361.277C862.113,357.45 863.848,355.407 866.752,353.057Z" style="fill:rgb(39,15,36);fill-rule:nonzero;"/>
    </g>
    <g transform="matrix(-1,0,0,1,1410.47,0)">
        <path d="M868.911,355.806C870.668,355.493 872.419,355.333 874.161,355.851C876.237,356.467 877.713,358.047 878.577,359.989C879.68,362.469 879.424,365.127 878.386,367.564C877.396,369.89 876.103,370.732 873.87,371.629L872.642,372.041C870.812,371.83 869.269,371.526 867.947,370.137C865.959,368.049 865.284,364.548 865.423,361.746C865.56,358.961 866.997,357.572 868.911,355.806Z" style="fill:rgb(113,134,161);fill-rule:nonzero;"/>
    </g>
    <g transform="matrix(-1,0,0,1,1410.47,0)">
        <path d="M833.758,320.054C836.521,320.018 838.728,319.964 841.102,321.605C843.504,323.266 845.155,326.308 845.622,329.15C846.107,332.096 845.495,335.116 843.727,337.535C841.846,340.108 839.836,340.767 836.848,341.248C836.7,341.297 836.557,341.367 836.404,341.396C835.147,341.639 833.499,341.158 832.416,340.521C829.994,339.096 828.496,336.391 827.751,333.761C826.81,330.44 826.856,326.471 828.73,323.47C830.028,321.391 831.48,320.665 833.758,320.054Z" style="fill:rgb(39,15,36);fill-rule:nonzero;"/>
    </g>
    <g transform="matrix(-1,0,0,1,1410.47,0)">
        <path d="M832.469,324.178C833.959,323.929 835.64,323.604 837.136,323.945C839.131,324.399 841.081,326.062 842.037,327.844C842.795,329.256 842.945,330.996 842.308,332.479C841.432,334.523 840.283,335.484 838.284,336.416L837.017,337.542L837.445,337.09L835.684,338.177L834.526,337.631C833.054,335.803 832.528,334.268 831.984,332.029C831.28,329.126 831.725,327.045 832.469,324.178Z" style="fill:rgb(113,134,161);fill-rule:nonzero;"/>
    </g>
    <g transform="matrix(-1,0,0,1,1410.47,0)">
        <path d="M700.643,629.82C700.763,638.789 700.774,647.759 700.676,656.729C700.443,673.392 699.583,690.113 697.109,706.611C700.985,709.835 704.273,713.011 706.785,717.461C706.345,722.564 705.693,727.726 701.575,731.271C697.132,735.095 690.61,735.507 685.014,735.965C686.522,731.268 687.514,726.855 687.894,721.912C686.431,718.878 684.614,715.811 681.697,713.959C679.594,712.624 676.309,711.689 673.841,712.132C674.647,716.252 681.414,716.62 683.28,721.82L683.512,722.479C683.285,728.059 681.023,731.714 677.81,736.067C663.947,736.997 650.649,737.192 636.818,735.377C636.405,730.44 635.191,725.858 633.826,721.12C632.058,718.937 630.668,717.068 627.744,716.696L626.561,717.679C631.139,723.585 631.821,727.751 631.908,735.04C628.731,734.598 625.447,734.233 622.34,733.428C614.445,731.381 609.16,727.002 605.054,720.041C605.106,701.504 603.514,682.967 602.643,664.458C636.034,659.11 673.105,649.969 700.643,629.82Z" style="fill:rgb(119,40,49);fill-rule:nonzero;"/>
    </g>
    <g transform="matrix(-1,0,0,1,1410.47,0)">
        <path d="M700.643,629.82C700.763,638.789 700.774,647.759 700.676,656.729C676.627,671.242 653.597,675.239 626.428,679.706C625.691,688.529 622.259,709.237 625.564,717.124L626.561,717.679C631.139,723.585 631.821,727.751 631.908,735.04C628.731,734.598 625.447,734.233 622.34,733.428C614.445,731.381 609.16,727.002 605.054,720.041C605.106,701.504 603.514,682.967 602.643,664.458C636.034,659.11 673.105,649.969 700.643,629.82Z" style="fill:rgb(100,29,44);fill-rule:nonzero;"/>
    </g>
    <g transform="matrix(-1,0,0,1,1410.47,0)">
        <path d="M633.826,721.12C645.322,726.78 669.463,728.402 681.729,724.338C682.55,724.066 682.991,723.16 683.512,722.479C683.285,728.059 681.023,731.714 677.81,736.067C663.947,736.997 650.649,737.192 636.818,735.377C636.405,730.44 635.191,725.858 633.826,721.12Z" style="fill:rgb(100,29,44);fill-rule:nonzero;"/>
    </g>
    <g transform="matrix(-1,0,0,1,1410.47,0)">
        <path d="M706.785,717.461C706.345,722.564 705.693,727.726 701.575,731.271C697.132,735.095 690.61,735.507 685.014,735.965C686.522,731.268 687.514,726.855 687.894,721.912C694.493,722.324 700.922,720.352 706.785,717.461Z" style="fill:rgb(100,29,44);fill-rule:nonzero;"/>
    </g>
    <g transform="matrix(-1,0,0,1,1410.47,0)">
        <path d="M376.881,511.143C390.879,508.391 406.436,512.648 418.972,519L431.304,526.082C431.249,532.741 430.462,539.324 429.741,545.935C430.407,556.496 429.553,567.081 430.064,577.637C430.584,588.353 433.196,598.384 436.233,608.622L429.689,613.979C424.988,616.923 420.237,619.431 415.229,621.811C411.439,623.685 406.654,625.593 402.379,625.605C398.348,625.617 396.222,624.254 393.432,621.485C390.797,617.696 387.072,604.75 383.381,603.872C382.131,606.376 382.887,610.592 383.748,613.195C384.855,616.545 386.621,619.782 388.485,622.764L392.915,627.206C386.887,627.062 379.852,626.545 374.33,624.048C369.692,621.95 367.376,619.149 365.618,614.462C363.47,608.779 363.237,593.789 360.054,590.218L358.896,590.894C355.571,596.328 359.094,608.715 360.212,614.551C358.382,612.037 356.696,609.509 355.38,606.682C345.18,584.777 354.512,549.069 362.351,527.358C362.887,526.51 363.018,525.421 363.251,524.448C364.449,521.352 365.657,516.899 367.815,514.386C370.339,511.445 373.284,511.452 376.881,511.143Z" style="fill:rgb(119,40,49);fill-rule:nonzero;"/>
    </g>
    <g transform="matrix(-1,0,0,1,1410.47,0)">
        <path d="M423.637,543.487L429.741,545.935C430.407,556.496 429.553,567.081 430.064,577.637C430.584,588.353 433.196,598.384 436.233,608.622L429.689,613.979C420.423,590.761 417.801,568.004 418.104,543.124C420.054,543.541 421.633,543.892 423.637,543.487Z" style="fill:rgb(100,29,44);fill-rule:nonzero;"/>
    </g>
    <g transform="matrix(-1,0,0,1,1410.47,0)">
        <path d="M365.618,614.462C371.323,617.936 380.031,624.606 386.966,623.332C387.53,623.228 387.974,623.014 388.485,622.764L392.915,627.206C386.887,627.062 379.852,626.545 374.33,624.048C369.692,621.95 367.376,619.149 365.618,614.462Z" style="fill:rgb(100,29,44);fill-rule:nonzero;"/>
    </g>
    <g transform="matrix(-1,0,0,1,1410.47,0)">
        <path d="M393.432,621.485C400.561,621.746 408.215,621.036 415.229,621.811C411.439,623.685 406.654,625.593 402.379,625.605C398.348,625.617 396.222,624.254 393.432,621.485Z" style="fill:rgb(100,29,44);fill-rule:nonzero;"/>
    </g>
    <g transform="matrix(-1,0,0,1,1410.47,0)">
        <path d="M458.52,633.314C465.598,637.403 472.56,641.703 480.073,644.964C498.517,652.97 534.77,662.15 554.872,664.241C554.117,683.092 553.914,701.913 553.344,720.754C548.36,726.293 539.136,735.333 531.132,735.389C529.199,735.402 528.713,734.87 527.311,733.691C525.998,730.639 526.206,727.678 527.422,724.613C527.695,723.924 528.238,722.942 528.861,722.501C529.699,720.873 530.996,718.768 530.716,716.907L529.657,716.593C526.976,717.827 525.107,719.683 522.997,721.705C522.077,726.452 522.433,731.316 522.584,736.119C513.961,736.535 505.212,737.239 496.589,737.15C491.861,737.101 486.552,736.761 483.113,733.086C480.26,730.036 480.439,725.05 480.6,721.153C482.057,718.785 484.684,715.493 484.279,712.706C482.164,711.953 480.696,712.511 478.506,712.887C477.849,713.975 477.227,715.101 476.697,716.257C473.688,722.834 475.663,729.583 477.955,735.984C470.296,735.538 462.112,733.877 455.9,729.065C453.536,727.233 451.475,724.877 451.207,721.773C450.905,718.26 453.199,714.757 455.295,712.139C458.504,708.893 462.413,705.989 465.916,703.045C457.352,694.262 458.837,671.825 458.542,660.001L458.52,633.314Z" style="fill:rgb(119,40,49);fill-rule:nonzero;"/>
    </g>
    <g transform="matrix(-1,0,0,1,1410.47,0)">
        <path d="M458.52,633.314C465.598,637.403 472.56,641.703 480.073,644.964C498.517,652.97 534.77,662.15 554.872,664.241C554.117,683.092 553.914,701.913 553.344,720.754C548.36,726.293 539.136,735.333 531.132,735.389C529.199,735.402 528.713,734.87 527.311,733.691C525.998,730.639 526.206,727.678 527.422,724.613C527.695,723.924 528.238,722.942 528.861,722.501L530.201,723.045C532.337,722.24 533.47,720.152 534.77,718.366C535.206,704.884 533.266,691.333 531.008,678.074C518.084,676.741 504.866,675.116 492.34,671.583C484.608,669.402 464.616,660.202 458.542,660.001L458.52,633.314Z" style="fill:rgb(100,29,44);fill-rule:nonzero;"/>
    </g>
    <g transform="matrix(-1,0,0,1,1410.47,0)">
        <path d="M522.584,736.119C513.961,736.535 505.212,737.239 496.589,737.15C491.861,737.101 486.552,736.761 483.113,733.086C480.26,730.036 480.439,725.05 480.6,721.153C491.942,725.183 511.187,723.786 522.997,721.705C522.077,726.452 522.433,731.316 522.584,736.119Z" style="fill:rgb(100,29,44);fill-rule:nonzero;"/>
    </g>
    <g transform="matrix(-1,0,0,1,1410.47,0)">
        <path d="M455.295,712.139C460.018,715.65 472.608,712.983 478.506,712.887C477.849,713.975 477.227,715.101 476.697,716.257C473.688,722.834 475.663,729.583 477.955,735.984C470.296,735.538 462.112,733.877 455.9,729.065C453.536,727.233 451.475,724.877 451.207,721.773C450.905,718.26 453.199,714.757 455.295,712.139Z" style="fill:rgb(100,29,44);fill-rule:nonzero;"/>
    </g>
    <g transform="matrix(-1,0,0,1,1410.47,0)">
        <path d="M368.318,81.729C370.637,74.795 373.689,61.046 380.872,57.601C390.782,52.848 409.998,60.575 419.475,64.115C448.269,74.873 472.471,90.875 496.423,109.719C485.675,114.539 474.829,119.753 465.48,127.012C452.133,119.133 417.764,103.179 402.467,106.934C398.555,107.895 395.8,110.663 393.806,114.051C382.72,132.889 385.564,161.811 388.032,182.424C389.048,184.473 389.627,187.171 390.355,189.369C384.183,189.01 377.97,189.077 371.788,189.026C356.98,156.328 359.829,115.704 368.318,81.729Z" style="fill:rgb(254,254,254);fill-rule:nonzero;"/>
    </g>
    <g transform="matrix(-1,0,0,1,1410.47,0)">
        <path d="M371.788,189.026C356.98,156.328 359.829,115.704 368.318,81.729C371.291,90.388 368.221,101.784 367.076,110.727C364.555,130.404 366.903,150.921 376.503,168.458C378.998,173.016 383.055,179.877 387.739,182.283C387.835,182.333 387.934,182.377 388.032,182.424C389.048,184.473 389.627,187.171 390.355,189.369C384.183,189.01 377.97,189.077 371.788,189.026Z" style="fill:rgb(192,199,215);fill-rule:nonzero;"/>
    </g>
    <g transform="matrix(-1,0,0,1,1410.47,0)">
        <path d="M570.456,470.158C576.864,471.927 582.616,471.707 589.008,470.324C601.682,503.718 612.634,537.352 618.507,572.648C609.373,585.435 597.619,593.881 584.727,602.535L578.85,605.846C562.546,598.069 549.428,586.123 538.541,571.872C546.281,536.596 557.23,503.735 570.456,470.158Z" style="fill:rgb(255,0,0);fill-rule:nonzero;"/>
    </g>
    <g transform="matrix(-1,0,0,1,1410.47,0)">
        <path d="M660.329,107.426C668.906,101.11 677.687,95.075 686.657,89.33C703.824,78.428 750.716,52.742 769.789,57.28C773.968,58.274 776.704,60.735 778.888,64.386C783.83,72.648 791.987,99.436 789.775,108.582C792.882,111.262 792.846,117.11 793.138,120.987C794.174,134.744 794.391,178.478 786.064,187.683C783.325,190.711 767.561,189.78 762.725,190.757L768.279,179.39C773.433,154.793 769.036,130.175 759.309,107.344C734.028,106.938 715.028,111.876 693.565,125.13C682.776,118.566 671.724,112.857 660.329,107.426Z" style="fill:rgb(254,254,254);fill-rule:nonzero;"/>
    </g>
    <g transform="matrix(-1,0,0,1,1410.47,0)">
        <path d="M789.775,108.582C792.882,111.262 792.846,117.11 793.138,120.987C794.174,134.744 794.391,178.478 786.064,187.683C783.325,190.711 767.561,189.78 762.725,190.757L768.279,179.39C768.63,179.24 768.981,179.09 769.321,178.917C776.262,175.371 781.634,158.739 783.785,151.608C786.103,143.925 793.471,115.494 789.775,108.582Z" style="fill:rgb(192,199,215);fill-rule:nonzero;"/>
    </g>
    <g transform="matrix(-1,0,0,1,1410.47,0)">
        <path d="M401.552,111.364C423.258,113.271 442.48,117.5 461.074,129.411C447.04,140.749 434.42,152.605 422.295,165.97C415.149,174.143 409.733,183.284 404.337,192.646L396.052,190.038C395.051,188 394.22,185.883 393.569,183.708C386.69,161.082 390.468,132.009 401.552,111.364Z" style="fill:rgb(119,40,49);fill-rule:nonzero;"/>
    </g>
    <g transform="matrix(-1,0,0,1,1410.47,0)">
        <path d="M739.916,111.622C745.605,110.922 751.441,111.249 757.162,111.363C765.738,125.686 768.12,147.787 766.572,164.132C766.012,170.043 764.055,187.041 758.98,190.516C757.45,191.563 756.418,191.332 754.7,191.141C749.742,188.215 746.317,179.931 743.502,174.926C730.302,156.746 715.26,141.666 697.722,127.748C710.239,118.873 724.817,113.723 739.916,111.622Z" style="fill:rgb(119,40,49);fill-rule:nonzero;"/>
    </g>
    <g transform="matrix(-1,0,0,1,1410.47,0)">
        <path d="M343.787,209.576C343.896,208.527 344.514,207.741 345.239,207.008C354.021,198.129 372.797,194.727 384.848,194.832C390.144,194.878 396.462,194.92 400.411,198.938C401.056,201.227 400.328,202.085 399.471,204.257C395.889,212.598 392.654,220.944 390.252,229.706C388.863,237.723 387.118,245.871 386.144,253.938C378.938,260.315 371.329,265.296 361.242,264.639C358.632,264.453 356.031,264.161 353.444,263.763C355.282,258.702 357.364,253.386 360.402,248.914C361.639,246.542 363.453,244.35 365.025,242.181C360.893,241.597 355.302,243.998 350.93,244.412C348.061,244.683 344.837,244.749 342.543,242.839C342.412,241.314 343.106,240.379 343.85,239.094C348.581,230.999 354.195,224.577 361.395,218.588C355.056,216.221 349.371,213.414 343.787,209.576Z" style="fill:rgb(232,93,40);fill-rule:nonzero;"/>
    </g>
    <g transform="matrix(-1,0,0,1,1410.47,0)">
        <path d="M360.402,248.914C361.1,249.193 361.035,249.224 361.793,249.294C366.822,249.76 385.416,233.58 390.252,229.706C388.863,237.723 387.118,245.871 386.144,253.938C378.938,260.315 371.329,265.296 361.242,264.639C358.632,264.453 356.031,264.161 353.444,263.763C355.282,258.702 357.364,253.386 360.402,248.914Z" style="fill:rgb(211,58,36);fill-rule:nonzero;"/>
    </g>
    <g transform="matrix(-1,0,0,1,1410.47,0)">
        <path d="M343.787,209.576C343.896,208.527 344.514,207.741 345.239,207.008C354.021,198.129 372.797,194.727 384.848,194.832C390.144,194.878 396.462,194.92 400.411,198.938C401.056,201.227 400.328,202.085 399.471,204.257C367.277,195.901 364.11,211.15 343.787,209.576Z" style="fill:rgb(248,158,90);fill-rule:nonzero;"/>
    </g>
    <g transform="matrix(-1,0,0,1,1410.47,0)">
        <path d="M365.025,242.181C360.893,241.597 355.302,243.998 350.93,244.412C348.061,244.683 344.837,244.749 342.543,242.839C342.412,241.314 343.106,240.379 343.85,239.094C349.456,242.531 359.806,237.36 365.798,240.122L365.9,241.273L365.025,242.181Z" style="fill:rgb(211,58,36);fill-rule:nonzero;"/>
    </g>
    <g transform="matrix(-1,0,0,1,1410.47,0)">
        <path d="M768.025,196.82C779.631,195.145 800.231,196.948 809.666,204.406C810.743,205.257 811.448,206.206 812.106,207.4C811.948,208.142 811.827,208.911 811.584,209.63C811.258,211.45 811.138,211.859 809.483,212.94C803.553,216.814 790.537,214.697 786.076,219.992C794.843,220.455 801.874,224.979 807.763,231.374C809.459,233.216 812.353,236.294 812.115,238.978C812.025,239.991 811.499,240.246 810.804,240.926C809.227,241.017 807.875,240.888 806.325,240.592C799.012,241.084 791.129,239.591 783.86,238.72C790.268,242.63 794.566,248.384 798.236,254.797C799.603,257.185 800.739,259.086 799.962,261.944C798.87,263.128 798.518,263.686 796.89,264.051C789.772,265.649 776.927,256.659 770.962,253.055C773.625,238.925 761.912,211.846 756.008,198.794C759.683,198.126 763.379,197.521 766.99,196.551L768.025,196.82Z" style="fill:rgb(211,58,36);fill-rule:nonzero;"/>
    </g>
    <g transform="matrix(-1,0,0,1,1410.47,0)">
        <path d="M768.025,196.82C779.631,195.145 800.231,196.948 809.666,204.406C810.743,205.257 811.448,206.206 812.106,207.4C811.948,208.142 811.827,208.911 811.584,209.63C811.258,211.45 811.138,211.859 809.483,212.94C803.553,216.814 790.537,214.697 786.076,219.992L785.714,220.693C779.876,216.553 771.8,202.743 766.99,196.551L768.025,196.82Z" style="fill:rgb(232,93,40);fill-rule:nonzero;"/>
    </g>
    <g transform="matrix(-1,0,0,1,1410.47,0)">
        <path d="M768.025,196.82C779.631,195.145 800.231,196.948 809.666,204.406C810.743,205.257 811.448,206.206 812.106,207.4C811.948,208.142 811.827,208.911 811.584,209.63C809.198,209.663 798.459,202.964 795.345,201.716C786.917,198.338 775.742,200.22 768.025,196.82Z" style="fill:rgb(248,158,90);fill-rule:nonzero;"/>
    </g>
    <g transform="matrix(-1,0,0,1,1410.47,0)">
        <path d="M786.076,219.992C794.843,220.455 801.874,224.979 807.763,231.374C809.459,233.216 812.353,236.294 812.115,238.978C812.025,239.991 811.499,240.246 810.804,240.926C809.227,241.017 807.875,240.888 806.325,240.592L806.518,238.921C803.107,230.617 793.135,225.077 785.714,220.693L786.076,219.992Z" style="fill:rgb(248,158,90);fill-rule:nonzero;"/>
    </g>
    <g transform="matrix(-1,0,0,1,1410.47,0)">
        <path d="M490.403,416.35C503.475,419.612 516.521,423.042 529.869,424.999C542.833,426.899 555.963,427.509 568.95,429.195C564.136,433.417 559.334,437.545 553.898,440.962C548.052,445.534 542.942,450.89 537.776,456.194C531.631,449.997 524.975,444.291 518.467,438.482C508.487,431.867 498.862,424.887 490.403,416.35Z" style="fill:rgb(192,199,215);fill-rule:nonzero;"/>
    </g>
    <g transform="matrix(-1,0,0,1,1410.47,0)">
        <path d="M518.467,438.482C529.252,437.768 543.337,438.68 553.898,440.962C548.052,445.534 542.942,450.89 537.776,456.194C531.631,449.997 524.975,444.291 518.467,438.482Z" style="fill:white;fill-rule:nonzero;"/>
    </g>
    <g transform="matrix(-1,0,0,1,1410.47,0)">
        <path d="M591.873,428.275C616.993,427.77 640.886,425.386 665.259,419.01C657.22,428.145 648.57,434.251 638.012,440.235C630.849,445.191 624.111,450.536 617.353,456.019C612.113,450.976 607.2,445.518 602.182,440.252C598.324,436.549 595.127,432.507 591.873,428.275Z" style="fill:rgb(192,199,215);fill-rule:nonzero;"/>
    </g>
    <g transform="matrix(-1,0,0,1,1410.47,0)">
        <path d="M602.182,440.252C607.005,439.7 634.475,439.135 638.012,440.235C630.849,445.191 624.111,450.536 617.353,456.019C612.113,450.976 607.2,445.518 602.182,440.252Z" style="fill:white;fill-rule:nonzero;"/>
    </g>
    <g transform="matrix(-1,0,0,1,1410.47,0)">
        <path d="M569.114,435.217C575.542,434.756 582.139,435.155 588.585,435.264C593.81,439.825 598.787,444.543 603.726,449.409C598.462,454.786 593.149,459.89 586.987,464.238L580.219,467.308C570.31,462.151 562.281,455.248 554.095,447.722C559.06,443.504 564.067,439.336 569.114,435.217Z" style="fill:rgb(255,0,0);fill-rule:nonzero;"/>
    </g>
    <g transform="matrix(-1,0,0,1,1410.47,0)">
        <path d="M375.436,493.292C367.679,509.7 367.475,509.403 360.74,526.31C366.194,522.937 371.647,519.564 377.101,516.191C379.151,520.229 381.202,524.266 383.252,528.304C387.199,526.34 391.146,524.376 395.092,522.413C401.239,526.626 400.847,526.664 405.515,532.501C410.929,528.763 415.768,523.396 420.519,527.961C425.394,532.646 426.7,535.823 430.572,542.289C430.688,540.263 431.971,524.675 431.971,524.675C431.971,524.675 434.896,509.152 437.123,501.588C442.63,482.878 441.922,481.8 451.546,472.131C458.034,465.614 467.661,421.501 472.866,414.708C475.636,411.094 463.166,407.172 463.166,407.172C463.166,407.172 451.252,400.835 447.277,400.787C443.415,400.741 445.413,401.676 439.487,406.196C430.73,412.875 434.304,411.674 427.737,418.162C409.621,436.059 396.029,454.908 375.436,493.292Z" style="fill:rgb(232,93,40);"/>
    </g>
    <g transform="matrix(-1,0,0,1,1410.47,0)">
        <path d="M445.647,400.153C452.601,401.515 474.292,410.277 486.708,418.134C499.609,426.299 518.188,443.967 523.747,449.413C503.911,444.53 448.683,424.302 430.114,415.77C433.257,411.534 433.574,411.078 436.325,408.468L445.647,400.153Z" style="fill:rgb(211,58,36);fill-rule:nonzero;"/>
    </g>
    <g transform="matrix(-1,0,0,1,1410.47,0)">
        <path d="M727.435,494.026C712.262,496.153 694.132,438.357 694.132,438.357C694.132,438.357 685.525,427.427 682.881,414.754L694.097,410.381C694.097,410.381 738.084,395.723 742.438,393.868C752.467,389.596 761.548,381.576 780.172,375.397C780.367,380.848 777.664,388.505 777.664,388.505L795.126,387.554C795.126,387.554 790.775,395.508 788.376,404.356C788.674,407.382 805.909,406.556 805.909,406.556C805.909,406.556 802.468,415.327 801.487,424.54C811.889,424.915 814.063,424.006 824.693,423.224C822.304,432.462 821.504,432.665 819.036,442.078C826.439,445.191 826.657,444.427 835.722,445.909C826.847,454.719 814.433,461.175 785.126,475.189C756.901,488.685 747.345,491.235 727.435,494.026Z" style="fill:rgb(232,93,40);"/>
    </g>
    <g transform="matrix(-1,0,0,1,1410.47,0)">
        <path d="M631.636,449.847C637.599,444.399 644.528,439.868 650.722,434.66C656.947,429.425 662.327,422.811 669.427,418.738C674.047,416.087 725.199,400.196 729.858,398.117C736.344,395.221 729.146,403.592 727.14,409.33C723.652,419.304 653.676,448.673 631.636,449.847Z" style="fill:rgb(211,58,36);fill-rule:nonzero;"/>
    </g>
</svg>
